<svg xmlns="http://www.w3.org/2000/svg" viewBox="0 0 32 32">
  <rect width="32" height="32" rx="7" fill="#111111"/>
  <rect x="0.5" y="0.5" width="31" height="31" rx="6.5" stroke="rgba(255,255,255,0.08)" stroke-width="1" fill="none"/>
  <circle cx="16" cy="16" r="10" fill="none" stroke="rgba(255,255,255,0.06)" stroke-width="1"/>
  <circle cx="16" cy="16" r="6" fill="none" stroke="rgba(255,255,255,0.06)" stroke-width="0.5"/>
  <line x1="16" y1="4" x2="16" y2="28" stroke="rgba(255,255,255,0.04)" stroke-width="0.5"/>
  <line x1="4" y1="16" x2="28" y2="16" stroke="rgba(255,255,255,0.04)" stroke-width="0.5"/>
  <polygon points="16,5 18.5,13 27,13 20.5,18 23,26 16,21 9,26 11.5,18 5,13 13.5,13" fill="none" stroke="rgba(255,255,255,0.55)" stroke-width="1" stroke-linejoin="round"/>
  <polygon points="16,9 17.5,14 22.5,14 18.5,17 20,22 16,19 12,22 13.5,17 9.5,14 14.5,14" fill="white"/>
</svg>
